<?xml version="1.0" encoding="UTF-8" standalone="no"?><!DOCTYPE svg PUBLIC "-//W3C//DTD SVG 1.1//EN" "http://www.w3.org/Graphics/SVG/1.1/DTD/svg11.dtd"><svg width="100%" height="100%" viewBox="0 0 921 759" version="1.1" xmlns="http://www.w3.org/2000/svg" xmlns:xlink="http://www.w3.org/1999/xlink" xml:space="preserve" xmlns:serif="http://www.serif.com/" style="fill-rule:evenodd;clip-rule:evenodd;stroke-linejoin:round;stroke-miterlimit:2;"><g><path d="M209.158,191.213c0,0 39.337,-147.246 203.125,-181.25c63.154,-13.113 158.771,-13.55 242.713,87.5c0,0 105.208,110.417 45.833,262.5c0,0 -85.417,-17.708 -93.75,-17.708c0,0 32.55,-44.792 36.717,-56.771c0,0 20.833,29.688 23.958,46.613c0,0 -0.521,-36.458 -16.667,-59.113c0,0 25.896,-65.729 28.388,-84.375c3.962,-29.671 18.75,-51.562 -106.25,-55.208c0,0 -57.388,-76.337 -98.958,-93.75c-12.404,-5.196 -28.212,-8.862 -39.062,36.979c-2.708,11.433 -9.375,38.542 -10.417,45.833c0,0 -1.042,17.188 -16.15,18.75c0,0 -122.396,19.271 -199.479,50Z" style="fill:#28225a;fill-rule:nonzero;"/><path d="M456.558,131.575c0,0 60.937,-3.383 88.279,-2.862c0,0 -7.671,-19.108 -45.571,-46.617c-3.588,-2.6 -10.75,-7.871 -17.708,-0.258c-9.392,10.271 -25,29.946 -25,49.737Z" style="fill:#28225a;fill-rule:nonzero;"/><path d="M594.929,164.475c0,0 35.417,50 37.5,63.196c0,0 27.479,-22.104 5.554,-50.696c-6.821,-8.892 -25.696,-23.608 -43.054,-12.5Z" style="fill:#28225a;fill-rule:nonzero;"/><path d="M443.537,153.367l120.833,-1.392c0,0 52.083,61.808 64.583,95.833c0,0 -34.029,70.833 -56.25,94.446c0,0 -133.333,6.946 -147.221,9.725c0,0 -15.283,-51.392 -40.975,-85.421c0,0 50.696,-90.971 59.029,-113.192Z" style="fill:#28225a;fill-rule:nonzero;"/><path d="M442.15,379.754c9.375,47.567 37.5,49.304 37.5,49.304c14.579,0.692 63.888,-36.458 64.579,-54.513c-1.733,-3.125 -102.358,3.8 -102.079,5.208Z" style="fill:#28225a;fill-rule:nonzero;"/><path d="M379.471,280.275c0,0 37.675,66.842 31.771,73.438c-2.433,2.083 -52.221,7.908 -55.729,-14.062c-2.521,-15.808 1.562,-36.979 23.958,-59.375Z" style="fill:#28225a;fill-rule:nonzero;"/><path d="M201.175,256.142c0,0 53.471,-82.637 206.25,-95.137c0,0 -10.417,37.496 -43.058,73.608c0,0 -18.058,-17.362 -32.642,-27.083c0,0 25.004,31.25 25.7,38.892c0,0 -44.45,72.913 -48.617,90.275c0,0 -19.433,39.383 20.833,47.225c21.358,4.158 35.163,7.804 93.754,-1.388c0,0 15.629,38.096 20.833,61.8c2.342,10.679 1.258,31.667 29.867,31.946c7.896,0.079 14.163,0.321 36.8,-23.612c18.233,-19.279 68.058,-66.663 75.7,-81.246c0,0 71.529,1.388 82.637,33.333c0,0 12.496,44.442 -97.921,99.996c0,0 -134.717,67.362 -269.446,-27.083c0,0 -110.417,-78.467 -100.692,-221.525Z" style="fill:#28225a;fill-rule:nonzero;"/><path d="M54.592,698.85l9.271,27.296l11.975,0l-29.617,-86.779l-13.392,0l-29.613,86.779l11.587,0l9.013,-27.296l30.775,0Zm-28.454,-8.754l8.496,-25.108c1.804,-5.279 3.092,-10.688 4.379,-15.708l0.254,0c1.292,5.021 2.579,10.171 4.508,15.838l8.625,24.979l-26.263,0Z" style="fill:#28225a;fill-rule:nonzero;"/><path d="M88.454,726.146l48.412,0l0,-9.396l-37.083,0l0,-77.383l-11.329,0l0,86.779Z" style="fill:#28225a;fill-rule:nonzero;"/><path d="M149.354,725.892c3.733,0.512 9.658,1.029 17.383,1.029c14.163,0 23.946,-2.575 29.871,-8.113c4.504,-4.121 7.467,-9.912 7.467,-17.383c0,-12.875 -9.654,-19.7 -17.896,-21.629l0,-0.387c9.013,-3.217 14.679,-10.558 14.679,-19.054c0,-6.825 -2.833,-11.975 -7.342,-15.325c-5.279,-4.375 -12.488,-6.308 -23.692,-6.308c-7.725,0 -15.579,0.775 -20.471,1.933l0,85.238Zm11.2,-77.771c1.804,-0.388 4.767,-0.771 9.917,-0.771c11.329,0 18.925,4.121 18.925,14.163c0,8.367 -6.95,14.679 -18.667,14.679l-10.175,0l0,-28.071Zm0,36.438l9.271,0c12.233,0 22.404,5.021 22.404,16.737c0,12.621 -10.687,16.871 -22.275,16.871c-3.992,0 -7.079,-0.129 -9.4,-0.517l0,-33.092Z" style="fill:#28225a;fill-rule:nonzero;"/><path d="M263.946,676.192l-33.608,0l0,-27.425l35.667,0l0,-9.4l-46.996,0l0,86.779l48.929,0l0,-9.396l-37.6,0l0,-31.288l33.608,0l0,-9.271Z" style="fill:#28225a;fill-rule:nonzero;"/><path d="M282.487,726.146l11.2,0l0,-37.596l10.558,0c10.171,0.387 14.937,4.892 17.513,16.867c2.317,10.817 4.246,18.154 5.663,20.729l11.587,0c-1.8,-3.346 -3.863,-11.717 -6.692,-23.817c-2.062,-9.013 -6.054,-15.196 -12.621,-17.512l0,-0.388c9.013,-3.088 16.225,-10.683 16.225,-22.017c0,-6.825 -2.575,-12.746 -6.825,-16.608c-5.279,-4.762 -13.133,-7.083 -25.108,-7.083c-7.596,0 -15.838,0.775 -21.5,1.804l0,85.621Zm11.2,-77.767c1.933,-0.517 5.667,-0.9 11.075,-0.9c11.846,0 19.954,4.892 19.954,16.092c0,9.917 -7.596,16.483 -19.571,16.483l-11.458,0l0,-31.675Z" style="fill:#28225a;fill-rule:nonzero;"/><path d="M369.392,726.146l11.333,0l0,-77.25l26.521,0l0,-9.529l-64.246,0l0,9.529l26.392,0l0,77.25Z" style="fill:#28225a;fill-rule:nonzero;"/><path d="M489.004,676.192l-33.604,0l0,-27.425l35.667,0l0,-9.4l-46.996,0l0,86.779l48.925,0l0,-9.396l-37.596,0l0,-31.288l33.604,0l0,-9.271Z" style="fill:#28225a;fill-rule:nonzero;"/><rect x="507.417" y="639.367" width="11.329" height="86.779" style="fill:#28225a;fill-rule:nonzero;"/><path d="M548.875,726.146l0,-37.079c0,-14.421 -0.125,-24.85 -0.771,-35.796l0.388,-0.129c4.246,9.4 10.042,19.317 16.092,28.971l27.554,44.033l11.333,0l0,-86.779l-10.558,0l0,36.308c0,13.521 0.258,24.079 1.288,35.667l-0.388,0.129c-3.992,-8.883 -9.142,-18.029 -15.45,-28.2l-27.683,-43.904l-12.362,0l0,86.779l10.558,0Z" style="fill:#28225a;fill-rule:nonzero;"/><path d="M618.663,721.9c4.633,3.088 13.775,5.663 22.146,5.663c20.471,0 30.258,-11.717 30.258,-25.104c0,-12.75 -7.342,-19.829 -22.017,-25.496c-11.975,-4.633 -17.254,-8.625 -17.254,-16.738c0,-5.925 4.504,-13.004 16.35,-13.004c7.854,0 13.65,2.446 16.354,4.121l3.087,-9.142c-3.733,-2.192 -10.3,-4.25 -19.054,-4.25c-16.867,0 -28.071,10.042 -28.071,23.563c0,12.104 8.758,19.571 22.921,24.721c11.717,4.379 16.35,9.142 16.35,17.125c0,8.754 -6.692,14.808 -18.154,14.808c-7.725,0 -14.933,-2.45 -19.954,-5.667l-2.962,9.4Z" style="fill:#28225a;fill-rule:nonzero;"/><path d="M702.996,726.146l11.333,0l0,-77.25l26.521,0l0,-9.529l-64.25,0l0,9.529l26.396,0l0,77.25Z" style="fill:#28225a;fill-rule:nonzero;"/><path d="M795.312,676.192l-33.604,0l0,-27.425l35.663,0l0,-9.4l-46.996,0l0,86.779l48.929,0l0,-9.396l-37.596,0l0,-31.288l33.604,0l0,-9.271Z" style="fill:#28225a;fill-rule:nonzero;"/><rect x="813.721" y="639.367" width="11.333" height="86.779" style="fill:#28225a;fill-rule:nonzero;"/><path d="M855.183,726.146l0,-37.079c0,-14.421 -0.129,-24.85 -0.771,-35.796l0.383,-0.129c4.25,9.4 10.046,19.317 16.096,28.971l27.554,44.033l11.329,0l0,-86.779l-10.558,0l0,36.308c0,13.521 0.258,24.079 1.288,35.667l-0.383,0.129c-3.992,-8.883 -9.142,-18.029 -15.45,-28.2l-27.683,-43.904l-12.362,0l0,86.779l10.558,0Z" style="fill:#28225a;fill-rule:nonzero;"/></g></svg>