<?xml version="1.0" encoding="UTF-8" standalone="no"?><!DOCTYPE svg PUBLIC "-//W3C//DTD SVG 1.1//EN" "http://www.w3.org/Graphics/SVG/1.1/DTD/svg11.dtd"><svg width="100%" height="100%" viewBox="0 0 4725 4725" version="1.1" xmlns="http://www.w3.org/2000/svg" xmlns:xlink="http://www.w3.org/1999/xlink" xml:space="preserve" xmlns:serif="http://www.serif.com/" style="fill-rule:evenodd;clip-rule:evenodd;stroke-linejoin:round;stroke-miterlimit:2;"><g id="Layer-1" serif:id="Layer 1"><path d="M2923.695,2644.261l0,-699.973c0,-239.197 249.274,-289.542 428.034,-221.565l0,133.446c-123.369,-50.359 -261.861,-37.773 -261.861,115.814l198.915,0l0,133.46l-198.915,0l0,536.294l-166.174,2.523Z" style="fill:#fcb823;fill-rule:nonzero;"/><path d="M3714.301,1868.759l125.892,0l25.187,103.228l153.587,0l0,133.446l-135.969,0l0,309.697c0,62.946 27.696,93.164 80.578,93.164l85.61,0l0,133.446l-166.188,0c-110.782,0 -168.696,-60.423 -168.696,-178.76l0,-594.222Z" style="fill:#fcb823;fill-rule:nonzero;"/><rect x="3419.718" y="1971.988" width="168.696" height="669.754" style="fill:#fcb823;"/><rect x="3419.718" y="1730.282" width="168.696" height="138.478" style="fill:#fcb823;"/><path d="M4192.7,2641.743c-148.556,234.165 -407.893,387.752 -705.004,387.752c-297.111,0 -556.449,-153.587 -705.004,-387.752c173.742,161.142 425.526,259.338 705.004,259.338c279.479,2.523 531.276,-98.196 705.004,-259.338" style="fill:#fcb823;fill-rule:nonzero;"/><path d="M2510.76,2002.205l83.101,0l17.618,70.5l100.719,0l0,88.119l-88.133,0l0,201.438c0,40.282 17.632,60.423 52.882,60.423l35.25,0l0,88.133l-90.641,0c-73.023,0 -110.796,-40.296 -110.796,-118.337l0,-390.275Zm-284.511,506.089l0,-435.589l85.61,0l12.586,55.391c37.759,-37.773 78.055,-55.391 120.86,-55.391l0,88.119c-40.296,0 -78.055,17.632 -110.796,55.405l0,292.065l-108.26,0Zm-219.056,-178.76c-27.696,-5.046 -60.437,-7.555 -100.719,-7.555c-52.868,0 -80.564,17.618 -80.564,50.345c0,32.741 22.65,50.359 65.455,50.359c45.328,0 83.101,-12.586 113.305,-35.25l0,-57.9l2.523,0Zm-289.556,42.791c0,-90.641 62.946,-133.446 188.837,-133.446c37.773,0 73.023,2.523 100.719,7.555l0,-27.696c0,-37.759 -37.773,-57.914 -113.305,-57.914c-47.837,0 -95.673,7.555 -141.001,20.155l0,-88.133c47.837,-12.586 95.673,-20.141 141.001,-20.141c148.556,0 224.088,47.837 224.088,143.524l0,292.065l-55.391,0l-47.837,-30.218c-37.773,20.155 -78.055,30.218 -120.86,30.218c-118.337,0 -176.251,-45.314 -176.251,-135.969m-740.255,135.969l0,-435.589l85.61,0l12.586,55.391c50.359,-37.773 100.719,-55.391 148.556,-55.391c55.391,0 93.164,20.141 115.828,60.423c55.391,-40.282 108.26,-60.423 156.096,-60.423c93.164,0 138.492,55.391 138.492,166.174l0,269.415l-110.782,0l0,-274.447c0,-47.837 -20.155,-73.023 -60.437,-73.023c-32.727,0 -67.978,17.632 -103.228,55.405l0,292.065l-110.782,0l0,-274.447c0,-50.359 -20.155,-73.023 -60.437,-73.023c-35.25,0 -70.5,17.632 -103.228,55.405l0,292.065l-108.274,0m-425.512,-20.141l0,-90.641c47.837,20.141 105.751,30.218 168.696,30.218c47.837,0 70.5,-15.109 70.5,-45.328c0,-27.696 -15.109,-42.805 -47.851,-42.805l-78.041,0c-88.133,0 -133.46,-45.314 -133.46,-133.446c0,-90.641 65.469,-135.969 193.883,-135.969c55.391,0 105.751,7.555 156.11,25.187l0,90.641c-47.837,-20.141 -100.719,-30.218 -158.633,-30.218c-60.423,0 -88.119,15.109 -88.119,45.328c0,27.696 17.618,42.805 52.868,42.805l70.5,0c95.687,0 146.047,45.314 146.047,133.446c0,90.641 -62.96,135.955 -186.329,135.955c-62.946,0 -115.828,-10.063 -166.174,-25.173" style="fill:#898b8e;fill-rule:nonzero;"/></g></svg>